<svg width="24" height="25" viewBox="0 0 24 25" fill="none" xmlns="http://www.w3.org/2000/svg">
<path d="M3.9375 23H1.3125C1.16332 23 1.02024 22.9407 0.914752 22.8352C0.809263 22.7298 0.75 22.5867 0.75 22.4375V4.8125C0.75 4.66332 0.809263 4.52024 0.914752 4.41475C1.02024 4.30926 1.16332 4.25 1.3125 4.25H3.9375C4.08668 4.25 4.22976 4.30926 4.33525 4.41475C4.44074 4.52024 4.5 4.66332 4.5 4.8125V22.4375C4.5 22.5867 4.44074 22.7298 4.33525 22.8352C4.22976 22.9407 4.08668 23 3.9375 23ZM11.25 10.25V7.8125C11.25 7.66332 11.1907 7.52024 11.0852 7.41475C10.9798 7.30926 10.8367 7.25 10.6875 7.25H5.8125C5.66332 7.25 5.52024 7.30926 5.41475 7.41475C5.30926 7.52024 5.25 7.66332 5.25 7.8125V10.25H11.25ZM5.25 20V22.4375C5.25 22.5867 5.30926 22.7298 5.41475 22.8352C5.52024 22.9407 5.66332 23 5.8125 23H10.6875C10.8367 23 10.9798 22.9407 11.0852 22.8352C11.1907 22.7298 11.25 22.5867 11.25 22.4375V20H5.25ZM5.25 11.75H11.25V18.5H5.25V11.75ZM15.9375 23H12.5625C12.4133 23 12.2702 22.9407 12.1648 22.8352C12.0593 22.7298 12 22.5867 12 22.4375V2.5625C12 2.41332 12.0593 2.27024 12.1648 2.16475C12.2702 2.05926 12.4133 2 12.5625 2H15.9375C16.0867 2 16.2298 2.05926 16.3352 2.16475C16.4407 2.27024 16.5 2.41332 16.5 2.5625V22.4375C16.5 22.5867 16.4407 22.7298 16.3352 22.8352C16.2298 22.9407 16.0867 23 15.9375 23ZM17.2969 5.22031L18.7031 22.4623C18.7094 22.538 18.7308 22.6115 18.7662 22.6786C18.8017 22.7457 18.8503 22.8049 18.9092 22.8528C18.9681 22.9006 19.036 22.936 19.109 22.9569C19.1819 22.9777 19.2583 22.9836 19.3336 22.9742L22.7161 22.5523C22.8601 22.5343 22.9916 22.4614 23.0831 22.3487C23.1745 22.236 23.2189 22.0923 23.2069 21.9477L21.7969 4.77547C21.7907 4.70088 21.7696 4.62829 21.735 4.56194C21.7004 4.49558 21.6529 4.43681 21.5953 4.38905C21.5376 4.34129 21.4711 4.30551 21.3994 4.28381C21.3278 4.26211 21.2526 4.25491 21.1781 4.26266L17.797 4.61469C17.6511 4.63045 17.5172 4.7026 17.4237 4.81575C17.3303 4.92889 17.2848 5.07407 17.2969 5.22031Z" fill="#EFE3C8"/>
</svg>
