<svg width="22" height="22" viewBox="0 0 22 22" fill="none" xmlns="http://www.w3.org/2000/svg">
<path d="M10.5625 0.4375C4.7385 0.4375 0 5.176 0 11C0 16.824 4.7385 21.5625 10.5625 21.5625C16.3865 21.5625 21.125 16.824 21.125 11C21.125 5.176 16.3865 0.4375 10.5625 0.4375ZM10.5625 2.0625C15.5082 2.0625 19.5 6.05431 19.5 11C19.5 15.9457 15.5082 19.9375 10.5625 19.9375C5.61681 19.9375 1.625 15.9457 1.625 11C1.625 6.05431 5.61681 2.0625 10.5625 2.0625ZM7.49125 6.75875L6.32125 7.92875L9.39575 11L6.32287 14.0713L7.49288 15.2412L10.5625 12.1676L13.6338 15.2388L14.8037 14.0713L11.7301 11L14.8013 7.92875L13.6338 6.75875L10.5625 9.83325L7.49125 6.76037V6.75875Z" fill="#EFE3C8" fill-opacity="0.5"/>
</svg>
