<svg width="15" height="12" viewBox="0 0 15 12" fill="none" xmlns="http://www.w3.org/2000/svg">
<path d="M4.76821 9.92626L13.5702 1.12526C13.6675 1.02792 13.7822 0.975924 13.9142 0.969257C14.0462 0.96259 14.1672 1.01459 14.2772 1.12526C14.3872 1.23592 14.4425 1.35492 14.4432 1.48226C14.4439 1.60959 14.3889 1.72826 14.2782 1.83826L5.33421 10.7883C5.17221 10.9503 4.98355 11.0313 4.76821 11.0313C4.55288 11.0313 4.36421 10.9503 4.20221 10.7883L0.152212 6.73826C0.0548784 6.64092 0.00421176 6.52526 0.000211765 6.39126C-0.00378824 6.25726 0.0488784 6.13526 0.158212 6.02526C0.267545 5.91526 0.386545 5.86026 0.515212 5.86026C0.643878 5.86026 0.762878 5.91526 0.872212 6.02526L4.76821 9.92626Z" fill="#62C3C9"/>
</svg>
