<svg width="21" height="18" viewBox="0 0 21 18" fill="none" xmlns="http://www.w3.org/2000/svg">
<path d="M9.80151 17.0925C8.72926 15.823 7.34178 14.6849 6.04116 13.6181L6.00326 13.587L6.00306 13.5868C4.59618 12.434 3.21799 11.302 2.18462 10.0136C1.16085 8.73719 0.5 7.33591 0.5 5.64923C0.5 4.10607 1.03779 2.82528 1.93342 1.9313C2.82911 1.03726 4.11288 0.5 5.66031 0.5C7.37338 0.5 8.89568 1.73862 9.79047 2.67523L10.152 3.05367L9.42 17.4157M9.80151 17.0925C9.80167 17.0927 9.80184 17.0929 9.802 17.0931L9.42 17.4157M9.80151 17.0925C9.8014 17.0924 9.80129 17.0922 9.80118 17.0921L9.42 17.4157M9.80151 17.0925C9.88331 17.1886 10.0025 17.2434 10.1262 17.2434H10.1797C10.3032 17.2434 10.4217 17.1886 10.5032 17.0928M9.42 17.4157C9.59631 17.6234 9.85477 17.7434 10.1262 17.7434H10.1797C10.452 17.7434 10.7095 17.6225 10.8849 17.4157M10.5032 17.0928L10.8849 17.4157M10.5032 17.0928C11.5866 15.8122 12.9877 14.6646 14.2999 13.5899L14.3037 13.5868M10.5032 17.0928C10.5033 17.0926 10.5035 17.0924 10.5036 17.0923L10.8849 17.4157M10.8849 17.4157L14.3037 13.5868M10.152 2.32985L9.79047 1.98446C9.79303 1.98177 9.7956 1.97908 9.79818 1.97639C9.92604 2.09822 10.0442 2.21705 10.152 2.32985ZM10.152 2.32985L10.5135 1.98446C10.511 1.9818 10.5084 1.97913 10.5059 1.97646C10.378 2.09827 10.2597 2.21707 10.152 2.32985ZM14.3037 13.5868L14.6206 13.9735L14.3038 13.5867C14.3038 13.5867 14.3038 13.5868 14.3037 13.5868Z" stroke="#EFE3C8"/>
</svg>
